<?xml version="1.0" encoding="UTF-8"?>
<!DOCTYPE svg PUBLIC "-//W3C//DTD SVG 1.1//EN" "http://www.w3.org/Graphics/SVG/1.1/DTD/svg11.dtd">
<!-- Creator: CorelDRAW 2018 (64-Bit) -->
<svg xmlns="http://www.w3.org/2000/svg" xml:space="preserve" width="277px" height="60px" version="1.1" style="shape-rendering:geometricPrecision; text-rendering:geometricPrecision; image-rendering:optimizeQuality; fill-rule:evenodd; clip-rule:evenodd"
viewBox="0 0 216.265 46.815"
 xmlns:xlink="http://www.w3.org/1999/xlink">
 <defs>
  <style type="text/css">
   <![CDATA[
    .fil0 {fill:#E53736}
   ]]>
  </style>
 </defs>
 <g id="Layer_x0020_1">
  <metadata id="CorelCorpID_0Corel-Layer"/>
  <path class="fil0" d="M7.244 17.696l4.378 -0.076c0.045,-1.237 -0.132,-5.312 0.071,-6.126 0.122,-0.49 2.355,-2.96 2.852,-3.378l0.148 9.335c1.068,0.376 2.342,0.112 3.478,0.229l0.074 2.799 -3.375 0.087c-0.012,1.757 -0.135,11.248 0.135,12.609 0.238,1.197 0.888,2.248 1.026,3.276 -0.654,0.735 -1.229,1.918 -2.102,2.365 -3.311,-2.665 -1.95,-13.989 -2.17,-18.266l-4.493 -0.037 -0.022 -2.817zm13.51 20.912l-3.444 -0.053c-0.498,-3.778 4.6,-6.585 2.022,-10.368 -1.561,-2.293 -0.882,-3.014 0.027,-5.457 0.395,-1.063 1.521,-4.241 2.053,-4.935l4.341 -0.029c-0.747,1.481 -1.455,3.217 -2.22,4.743 -1.036,2.069 -1.374,3.353 -0.231,5.443 1.223,2.233 0.444,3.407 -0.485,5.5 -0.757,1.707 -1.384,3.438 -2.063,5.156zm-5.553 -34.195c-10.612,1.353 -16.331,20.24 -8.022,32.626 2.207,3.289 6.255,6.09 10.668,5.441 8.682,-1.278 12.283,-12.388 11.982,-20.335 -0.301,-7.949 -5.263,-18.926 -14.628,-17.732z"/>
  <path class="fil0" d="M30.9 26.547c-1.183,8.728 -6.811,19.357 -17.264,16.826 -8.534,-2.066 -12.514,-14.136 -11.482,-23.118 0.983,-8.552 7.24,-19.683 17.401,-16.731 8.728,2.535 12.501,14.499 11.345,23.023zm-16.568 -26.303c-10.922,2.273 -14.888,15.746 -14.27,25.648 0.598,9.574 7.302,22.868 18.722,20.684 14.463,-2.766 18.601,-27.984 9.103,-40.148 -3.265,-4.182 -7.947,-7.35 -13.555,-6.184z"/>
  <path class="fil0" d="M38.053 10.401l6.323 0.016 0.01 23.345 7.255 0.014 0.102 -23.355 6.826 -0.026 0.01 -4.039 -20.688 -0.089c-0.028,1.218 -0.24,3.09 0.162,4.134z"/>
  <path class="fil0" d="M76.95 20.463c2.326,-1.021 1.902,2.696 1.902,3.966 0,1.294 0.499,4.942 -0.845,5.53 -2.443,1.069 -2.049,-2.723 -2.054,-3.99 -0.007,-1.598 -0.67,-4.773 0.997,-5.506zm1.657 -2.376c-2.355,-0.52 -4.352,-2.393 -6.831,0.144 -2.708,2.77 -3.34,10.652 0.252,14.345 0.791,0.814 1.947,1.404 3.118,1.457 1.906,0.087 2.31,-0.969 3.353,-1.15l0.129 7.613 5.81 0.052 0.037 -24.062 -5.838 -0.016 -0.03 1.617z"/>
  <path class="fil0" d="M210.948 29.05c-0.485,1.2 -3.148,2.046 -3.138,-1.538 0.003,-1.184 -0.182,-5.646 0.209,-6.422 0.805,-1.598 3.049,-1.195 3.053,1.57 0.002,0.978 0.101,5.834 -0.124,6.39zm-0.427 3.236l0.059 1.526 5.667 0.01 0.018 -17.348 -5.668 -0.021 -0.057 1.463c-0.628,-0.166 -3.893,-2.95 -6.578,-0.431 -1.581,1.484 -2.109,5.005 -2.164,7.164 -0.102,3.99 1.346,8.202 5.358,8.598 2.104,0.208 1.937,-0.423 3.365,-0.961z"/>
  <path class="fil0" d="M185.101 33.504l5.771 0.029 0.019 -12.318c0.7,-0.908 1.107,-0.965 2.167,-0.708 1.391,0.767 0.273,9.933 0.731,13.33l5.409 0.016c0.433,-2.919 0.079,-8.833 0.09,-12.067 0.023,-7.021 -13.995,-6.833 -14.097,-0.448 -0.064,4.013 -0.138,8.16 -0.09,12.166z"/>
  <path class="fil0" d="M162.845 33.779l8.199 0.076 4.521 -17.577 -5.784 -0.056 -2.555 11.147c-0.615,-0.928 -2.935,-9.587 -3.291,-11.181l-5.244 -0.01 4.154 17.601z"/>
  <path class="fil0" d="M149.569 19.81c2.668,-1.42 2.22,2.991 2.22,4.399 -0.001,1.426 0.536,5.578 -0.905,6.22 -2.708,1.207 -2.223,-3.109 -2.223,-4.46 0.001,-2.939 -0.497,-5.411 0.908,-6.159zm-1.123 -3.362c-6.32,1.327 -5.168,5.275 -5.168,10.622 0,2.732 -0.324,4.385 2.225,5.771 1.781,0.969 4.707,1.205 6.699,0.873 6.395,-1.064 4.974,-5.472 4.973,-10.606 -0.001,-2.529 0.098,-4.264 -2.225,-5.675 -1.81,-1.099 -4.466,-1.413 -6.504,-0.985z"/>
  <path class="fil0" d="M93.33 19.731c2.656,-1.461 2.187,3.412 2.187,4.698 0,1.444 0.556,5.4 -0.946,6.031 -2.698,1.133 -2.176,-3.392 -2.176,-4.711 0,-1.585 -0.584,-5.183 0.935,-6.018zm-0.677 -3.36c-6.427,0.838 -5.633,4.95 -5.633,10.038 0,2.581 -0.561,4.514 1.748,6.152 1.622,1.15 4.588,1.406 6.562,1.226 6.781,-0.616 5.575,-4.671 5.575,-10.019 0,-2.43 0.354,-4.672 -1.847,-6.117 -1.872,-1.228 -4.178,-1.57 -6.405,-1.28z"/>
  <path class="fil0" d="M103.582 26.088l8.062 0.018c0.021,0.859 0.205,3.227 -0.2,3.851 -0.321,0.493 -0.988,0.614 -1.502,0.404 -0.674,-0.277 -0.51,-1.024 -0.554,-1.696l-5.878 -0.07 0.022 2.657c1.772,1.869 3.889,2.976 6.573,2.993 2.31,0.014 5.476,-1.111 6.94,-2.857l0.067 -7.065 -7.663 -0.04 -0.012 -4.018 2.496 0.023 0.018 1.589 5.102 -0.044 -0.009 -3.127c-3.728,-3.475 -11.653,-3.36 -13.248,1.175 -0.446,1.269 -0.547,4.921 -0.214,6.207z"/>
  <path class="fil0" d="M55.109 33.803l5.193 0.039c0.503,-3.215 -0.703,-12.78 0.76,-13.321 2.107,-0.131 1.346,3.655 1.405,5.066l5.123 -0.018c0.086,-3.583 0.855,-10.216 -4.578,-9.084 -1.451,0.302 -1.84,1.328 -2.752,1.73l-0.027 -1.775 -5.109 0.015 -0.015 17.348z"/>
  <path class="fil0" d="M128.154 33.819l5.174 0.015c0.437,-3.644 -0.892,-13.674 1.207,-13.378 1.4,0.776 0.858,3.64 0.9,5.1l5.139 0.034c0.072,-2.293 0.604,-6.486 -1.013,-8.166 -1.923,-1.998 -4.817,-0.948 -6.268,1.024l-0.088 -1.997 -5.044 -0.01 -0.007 17.378z"/>
  <polygon class="fil0" points="119.752,33.712 125.263,33.726 125.277,16.289 119.769,16.212 "/>
  <polygon class="fil0" points="177.013,33.82 182.444,33.846 182.535,16.332 177.045,16.31 "/>
  <polygon class="fil0" points="177.015,14.206 182.43,14.23 182.534,9.528 177.057,9.519 "/>
  <polygon class="fil0" points="119.755,14.079 125.239,14.093 125.28,9.483 119.79,9.405 "/>
 </g>
</svg>
